<svg width="100" height="100" xmlns="http://www.w3.org/2000/svg" fill="none">

 <g>
  <title>Layer 1</title>
  <path id="svg_1" fill="#FE5000" d="m70.266,25.735c-13.636,-0.98 -28.825,-0.98 -42.46,0c-2.855,0.205 -5.018,2.39 -5.233,5.062c-0.688,8.568 -0.78,21.404 -0.149,29.963c0.209,2.827 2.691,5.254 6.05,5.254l10.526,0l0,12.986l-10.505,-0.007c-9.638,0 -18.288,-7.144 -19.035,-17.277c-0.68,-9.225 -0.587,-22.729 0.155,-31.96c0.743,-9.252 8.182,-16.336 17.259,-16.988c14.256,-1.024 30.066,-1.024 44.324,0c9.076,0.652 16.515,7.736 17.258,16.988c0.742,9.231 0.71,22.735 0.03,31.96c-0.748,10.133 -9.378,17.306 -19.016,17.306l-10.396,-0.008l-20.074,12.986l0,-13l20.074,-12.986l10.398,0c3.358,0 5.84,-2.427 6.049,-5.254c0.63,-8.559 0.665,-21.395 -0.023,-29.963c-0.215,-2.672 -2.377,-4.857 -5.232,-5.062z"/>
 </g>
</svg>